<?xml version='1.0' encoding='utf-8'?>
<svg xmlns="http://www.w3.org/2000/svg" width="780" height="1260" viewBox="0 0 780 1260">
  <rect x="0" y="0" width="780" height="1260" fill="white" />
  <defs>
    <marker id="ah" markerWidth="9" markerHeight="7" refX="8" refY="3.5" orient="auto">
      <polygon points="0,0 9,3.5 0,7" fill="#444444" />
    </marker>
    <marker id="ah_red" markerWidth="9" markerHeight="7" refX="8" refY="3.5" orient="auto">
      <polygon points="0,0 9,3.5 0,7" fill="#C00000" />
    </marker>
  </defs>
  <text x="390" y="32" font-family="Arial" font-size="13" font-weight="bold" fill="#1F4E79" text-anchor="middle">IOD-03  —  Package Setup &amp; Trip Operations</text>
  <path d="M 390,78 L 390,121" fill="none" stroke="#444444" stroke-width="1.4" marker-end="url(#ah)" />
  <path d="M 390,189 L 390,234" fill="none" stroke="#444444" stroke-width="1.4" marker-end="url(#ah)" />
  <path d="M 390,302 L 390,356" fill="none" stroke="#444444" stroke-width="1.4" marker-end="url(#ah)" />
  <path d="M 158,363 L 158,411" fill="none" stroke="#444444" stroke-width="1.4" marker-end="url(#ah)" />
  <path d="M 622,363 L 622,411" fill="none" stroke="#444444" stroke-width="1.4" marker-end="url(#ah)" />
  <path d="M 158,479 L 158,528" fill="none" stroke="#444444" stroke-width="1.4" marker-end="url(#ah)" />
  <path d="M 622,479 L 622,528" fill="none" stroke="#444444" stroke-width="1.4" marker-end="url(#ah)" />
  <path d="M 158,596 L 158,665 L 190,665" fill="none" stroke="#444444" stroke-width="1.4" marker-end="url(#ah)" />
  <path d="M 622,596 L 622,665 L 590,665" fill="none" stroke="#444444" stroke-width="1.4" marker-end="url(#ah)" />
  <path d="M 390,669 L 390,724" fill="none" stroke="#444444" stroke-width="1.4" marker-end="url(#ah)" />
  <path d="M 390,792 L 390,836" fill="none" stroke="#444444" stroke-width="1.4" marker-end="url(#ah)" />
  <path d="M 390,904 L 390,948" fill="none" stroke="#444444" stroke-width="1.4" marker-end="url(#ah)" />
  <path d="M 390,1016 L 390,1060" fill="none" stroke="#444444" stroke-width="1.4" marker-end="url(#ah)" />
  <path d="M 390,1128 L 390,1176" fill="none" stroke="#444444" stroke-width="1.4" marker-end="url(#ah)" />
  <circle cx="390" cy="65" r="13" fill="#1F4E79" stroke="none" />
  <rect x="273" y="124" width="240" height="68" fill="#CCCCCC" rx="2" />
  <rect x="270" y="121" width="240" height="68" fill="#EEF5FB" stroke="#2E75B6" stroke-width="1.8" rx="2" />
  <polygon points="270,121 304,121 304,134 299,139 270,139" fill="#2E75B6" stroke="#2E75B6" />
  <text x="287" y="136" font-family="Arial" font-size="8" font-weight="bold" fill="#FFFFFF" text-anchor="middle">ref</text>
  <text x="390" y="149" font-family="Arial" font-size="10.5" font-weight="bold" fill="#1F4E79" text-anchor="middle">SD-01</text>
  <text x="390" y="163" font-family="Arial" font-size="9" fill="#444444" text-anchor="middle">Log In</text>
  <rect x="273" y="237" width="240" height="68" fill="#CCCCCC" rx="2" />
  <rect x="270" y="234" width="240" height="68" fill="#EEF5FB" stroke="#2E75B6" stroke-width="1.8" rx="2" />
  <polygon points="270,234 304,234 304,247 299,252 270,252" fill="#2E75B6" stroke="#2E75B6" />
  <text x="287" y="249" font-family="Arial" font-size="8" font-weight="bold" fill="#FFFFFF" text-anchor="middle">ref</text>
  <text x="390" y="262" font-family="Arial" font-size="10.5" font-weight="bold" fill="#1F4E79" text-anchor="middle">SD-08</text>
  <text x="390" y="276" font-family="Arial" font-size="9" fill="#444444" text-anchor="middle">Create &amp; Publish Travel</text>
  <text x="390" y="289" font-family="Arial" font-size="9" fill="#444444" text-anchor="middle">Package</text>
  <rect x="180" y="357" width="420" height="7" fill="#1F4E79" stroke="#1F4E79" rx="2" />
  <text x="158" y="350" font-family="Arial" font-size="8.5" fill="#666" text-anchor="middle" font-style="italic">Package configuration</text>
  <text x="622" y="350" font-family="Arial" font-size="8.5" fill="#666" text-anchor="middle" font-style="italic">Partner setup</text>
  <rect x="41" y="414" width="240" height="68" fill="#CCCCCC" rx="2" />
  <rect x="38" y="411" width="240" height="68" fill="#EEF5FB" stroke="#2E75B6" stroke-width="1.8" rx="2" />
  <polygon points="38,411 72,411 72,424 67,429 38,429" fill="#2E75B6" stroke="#2E75B6" />
  <text x="55" y="426" font-family="Arial" font-size="8" font-weight="bold" fill="#FFFFFF" text-anchor="middle">ref</text>
  <text x="158" y="439" font-family="Arial" font-size="10.5" font-weight="bold" fill="#1F4E79" text-anchor="middle">SD-10</text>
  <text x="158" y="453" font-family="Arial" font-size="9" fill="#444444" text-anchor="middle">Define Seasonal Pricing &amp;</text>
  <text x="158" y="466" font-family="Arial" font-size="9" fill="#444444" text-anchor="middle">Discounts</text>
  <rect x="41" y="531" width="240" height="68" fill="#CCCCCC" rx="2" />
  <rect x="38" y="528" width="240" height="68" fill="#EEF5FB" stroke="#2E75B6" stroke-width="1.8" rx="2" />
  <polygon points="38,528 72,528 72,541 67,546 38,546" fill="#2E75B6" stroke="#2E75B6" />
  <text x="55" y="543" font-family="Arial" font-size="8" font-weight="bold" fill="#FFFFFF" text-anchor="middle">ref</text>
  <text x="158" y="556" font-family="Arial" font-size="10.5" font-weight="bold" fill="#1F4E79" text-anchor="middle">SD-12</text>
  <text x="158" y="570" font-family="Arial" font-size="9" fill="#444444" text-anchor="middle">Define Package Document</text>
  <text x="158" y="583" font-family="Arial" font-size="9" fill="#444444" text-anchor="middle">Checklist</text>
  <rect x="505" y="414" width="240" height="68" fill="#CCCCCC" rx="2" />
  <rect x="502" y="411" width="240" height="68" fill="#EEF5FB" stroke="#2E75B6" stroke-width="1.8" rx="2" />
  <polygon points="502,411 536,411 536,424 531,429 502,429" fill="#2E75B6" stroke="#2E75B6" />
  <text x="519" y="426" font-family="Arial" font-size="8" font-weight="bold" fill="#FFFFFF" text-anchor="middle">ref</text>
  <text x="622" y="439" font-family="Arial" font-size="10.5" font-weight="bold" fill="#1F4E79" text-anchor="middle">SD-30</text>
  <text x="622" y="453" font-family="Arial" font-size="9" fill="#444444" text-anchor="middle">Link Partners to Travel</text>
  <text x="622" y="466" font-family="Arial" font-size="9" fill="#444444" text-anchor="middle">Package</text>
  <rect x="505" y="531" width="240" height="68" fill="#CCCCCC" rx="2" />
  <rect x="502" y="528" width="240" height="68" fill="#EEF5FB" stroke="#2E75B6" stroke-width="1.8" rx="2" />
  <polygon points="502,528 536,528 536,541 531,546 502,546" fill="#2E75B6" stroke="#2E75B6" />
  <text x="519" y="543" font-family="Arial" font-size="8" font-weight="bold" fill="#FFFFFF" text-anchor="middle">ref</text>
  <text x="622" y="556" font-family="Arial" font-size="10.5" font-weight="bold" fill="#1F4E79" text-anchor="middle">SD-29</text>
  <text x="622" y="570" font-family="Arial" font-size="9" fill="#444444" text-anchor="middle">Manage Business Partner</text>
  <text x="622" y="583" font-family="Arial" font-size="9" fill="#444444" text-anchor="middle">Records</text>
  <rect x="180" y="662" width="420" height="7" fill="#1F4E79" stroke="#1F4E79" rx="2" />
  <rect x="273" y="727" width="240" height="68" fill="#CCCCCC" rx="2" />
  <rect x="270" y="724" width="240" height="68" fill="#EEF5FB" stroke="#2E75B6" stroke-width="1.8" rx="2" />
  <polygon points="270,724 304,724 304,737 299,742 270,742" fill="#2E75B6" stroke="#2E75B6" />
  <text x="287" y="739" font-family="Arial" font-size="8" font-weight="bold" fill="#FFFFFF" text-anchor="middle">ref</text>
  <text x="390" y="752" font-family="Arial" font-size="10.5" font-weight="bold" fill="#1F4E79" text-anchor="middle">SD-24</text>
  <text x="390" y="766" font-family="Arial" font-size="9" fill="#444444" text-anchor="middle">Create &amp; Manage Travel</text>
  <text x="390" y="779" font-family="Arial" font-size="9" fill="#444444" text-anchor="middle">Schedule</text>
  <rect x="273" y="839" width="240" height="68" fill="#CCCCCC" rx="2" />
  <rect x="270" y="836" width="240" height="68" fill="#EEF5FB" stroke="#2E75B6" stroke-width="1.8" rx="2" />
  <polygon points="270,836 304,836 304,849 299,854 270,854" fill="#2E75B6" stroke="#2E75B6" />
  <text x="287" y="851" font-family="Arial" font-size="8" font-weight="bold" fill="#FFFFFF" text-anchor="middle">ref</text>
  <text x="390" y="864" font-family="Arial" font-size="10.5" font-weight="bold" fill="#1F4E79" text-anchor="middle">SD-25</text>
  <text x="390" y="878" font-family="Arial" font-size="9" fill="#444444" text-anchor="middle">Assign Guide or Coordinator</text>
  <rect x="273" y="951" width="240" height="68" fill="#CCCCCC" rx="2" />
  <rect x="270" y="948" width="240" height="68" fill="#EEF5FB" stroke="#2E75B6" stroke-width="1.8" rx="2" />
  <polygon points="270,948 304,948 304,961 299,966 270,966" fill="#2E75B6" stroke="#2E75B6" />
  <text x="287" y="963" font-family="Arial" font-size="8" font-weight="bold" fill="#FFFFFF" text-anchor="middle">ref</text>
  <text x="390" y="976" font-family="Arial" font-size="10.5" font-weight="bold" fill="#1F4E79" text-anchor="middle">SD-27</text>
  <text x="390" y="990" font-family="Arial" font-size="9" fill="#444444" text-anchor="middle">Distribute Trip Documents</text>
  <rect x="273" y="1063" width="240" height="68" fill="#CCCCCC" rx="2" />
  <rect x="270" y="1060" width="240" height="68" fill="#EEF5FB" stroke="#2E75B6" stroke-width="1.8" rx="2" />
  <polygon points="270,1060 304,1060 304,1073 299,1078 270,1078" fill="#2E75B6" stroke="#2E75B6" />
  <text x="287" y="1075" font-family="Arial" font-size="8" font-weight="bold" fill="#FFFFFF" text-anchor="middle">ref</text>
  <text x="390" y="1088" font-family="Arial" font-size="10.5" font-weight="bold" fill="#1F4E79" text-anchor="middle">SD-26</text>
  <text x="390" y="1102" font-family="Arial" font-size="9" fill="#444444" text-anchor="middle">Close &amp; Archive Completed</text>
  <text x="390" y="1115" font-family="Arial" font-size="9" fill="#444444" text-anchor="middle">Trip</text>
  <circle cx="390" cy="1190" r="14" fill="none" stroke="#1F4E79" stroke-width="2.2" />
  <circle cx="390" cy="1190" r="9" fill="#1F4E79" stroke="none" />
</svg>